# xmcd CD database file
#
# Track frame offsets:
#	150
#	13587
#	26804
#	37526
#	51363
#	62510
#	76347
#	87541
#	101418
#	114718
#	125670
#	139112
#	149157
#	162064
#	178739
#	192241
#	200706
#	214778
#	230800
#	247192
#
# Disc length: 3419 seconds
#
# Revision: 2
# Processed by: cddbd v1.5.2PL0 Copyright (c) Steve Scherf et al.
# Submitted via: CDex 1.70beta1
#
DISCID=290d5914
DTITLE=Various Artist - Superhits Of Country CD 9
DYEAR=1900
DGENRE=
TTITLE0=Dottie West - Blue Fiddle Waltz
TTITLE1=Nancy Peppers - Only In My Dreams
TTITLE2=Patsy Cline - Lovesick Blues
TTITLE3=Mel McDaniel - Baby's Got Her Blue Jeans On
TTITLE4=Guy Mitchell - Singing The Blues
TTITLE5=Porter Wagoner - Green Green Grass Of Home
TTITLE6=Jerry Wallace - Primrose Lane
TTITLE7=Tammy Wynette and George Jones - Golden Ring
TTITLE8=Lynn Anderson - Rose Garden
TTITLE9=Billie Jo Spears - Misty Blue
TTITLE10=Becky Hobbs - Mama's Green Eyes
TTITLE11=Boxcar Willie - Blue Moon Of Kentucky
TTITLE12=The Gatlin Brothers - All The Gold In California
TTITLE13=Crystal Gayle - When I Dream
TTITLE14=Mickey Gilley - Room Full Of Roses
TTITLE15=Slim Whitman - Have You Ever Been Lonely
TTITLE16=Johnny Paycheck - Slide Off Of You Satin Sheets
TTITLE17=Ray Stevens - Everything Is Beautiful
TTITLE18=Tammy Wynette and David Houston - My Elusive Dreams
TTITLE19=The Kendalls - Blue Blue Day
EXTD=
EXTT0=
EXTT1=
EXTT2=
EXTT3=
EXTT4=
EXTT5=
EXTT6=
EXTT7=
EXTT8=
EXTT9=
EXTT10=
EXTT11=
EXTT12=
EXTT13=
EXTT14=
EXTT15=
EXTT16=
EXTT17=
EXTT18=
EXTT19=
PLAYORDER=
